<svg height="16" viewBox="0 0 16 16" width="16" xmlns="http://www.w3.org/2000/svg"><g fill="#2e3436"><path d="m1 3h14c.550781 0 1 .449219 1 1s-.449219 1-1 1h-14c-.550781 0-1-.449219-1-1s.449219-1 1-1zm0 0"/><path d="m4 4v-1.5c0-1.386719 1.113281-2.5 2.5-2.5h2.980469c1.382812 0 2.5 1.113281 2.5 2.5v1.5h-2v-1.5c0-.269531-.230469-.5-.5-.5h-2.980469c-.269531 0-.5.230469-.5.5v1.5zm0 0"/><path d="m4 4v9c0 .546875.453125 1 1 1h6c.546875 0 1-.453125 1-1v-9h2v9c0 1.660156-1.339844 3-3 3h-6c-1.660156 0-3-1.339844-3-3v-9zm0 0"/><path d="m7 7v5c0 .277344-.222656.5-.5.5s-.5-.222656-.5-.5v-5c0-.277344.222656-.5.5-.5s.5.222656.5.5zm0 0"/><path d="m10 7v5c0 .277344-.222656.5-.5.5s-.5-.222656-.5-.5v-5c0-.277344.222656-.5.5-.5s.5.222656.5.5zm0 0"/></g></svg>